<svg id="Layer_1" data-name="Layer 1" xmlns="http://www.w3.org/2000/svg" xmlns:xlink="http://www.w3.org/1999/xlink" viewBox="0 0 1140 480"><defs><style>.cls-1,.cls-3,.cls-6{fill:none;}.cls-2{clip-path:url(#clip-path);}.cls-3{stroke:#3c9;}.cls-3,.cls-6{stroke-miterlimit:10;stroke-width:2px;}.cls-4{fill:#63c;}.cls-5{fill:#3c9;}.cls-6{stroke:#63c;}</style><clipPath id="clip-path"><rect class="cls-1" x="194.1" width="751.81" height="480"/></clipPath></defs><g class="cls-2"><circle class="cls-3" cx="367.88" cy="176.1" r="173.2"/><rect class="cls-4" x="251.93" y="183.33" width="346.99" height="196.63" rx="11.57"/><rect class="cls-3" x="353.71" y="308.41" width="143.42" height="345.79" rx="12.9"/><rect class="cls-3" x="372.8" y="354.39" width="105.25" height="253.79" rx="9.48"/><rect class="cls-3" x="391.88" y="400.37" width="67.08" height="161.79" rx="6.01"/><rect class="cls-5" x="553.23" y="57.83" width="138.8" height="208.19" rx="11.57"/><rect class="cls-4" x="566.14" y="209.28" width="5.38" height="5.39" transform="translate(16.72 464.31) rotate(-45)"/><rect class="cls-4" x="593.14" y="209.36" width="5.38" height="5.39" transform="translate(24.57 483.42) rotate(-45)"/><rect class="cls-4" x="620.15" y="209.35" width="5.38" height="5.39" transform="translate(32.49 502.52) rotate(-45)"/><rect class="cls-4" x="647.2" y="209.39" width="5.38" height="5.39" transform="translate(40.38 521.66) rotate(-45)"/><rect class="cls-4" x="674.2" y="209.32" width="5.38" height="5.39" transform="translate(48.34 540.73) rotate(-45)"/><rect class="cls-4" x="566.17" y="229.72" width="5.38" height="5.39" transform="translate(2.27 470.32) rotate(-45)"/><rect class="cls-4" x="593.15" y="229.67" width="5.38" height="5.39" transform="translate(10.21 489.38) rotate(-45)"/><rect class="cls-4" x="620.19" y="229.71" width="5.38" height="5.39" transform="translate(18.1 508.51) rotate(-45)"/><rect class="cls-4" x="647.17" y="229.69" width="5.38" height="5.39" transform="translate(26.02 527.58) rotate(-45)"/><rect class="cls-4" x="674.15" y="229.63" width="5.38" height="5.39" transform="translate(33.96 546.65) rotate(-45)"/><rect class="cls-4" x="566.13" y="250.03" width="5.38" height="5.39" transform="translate(-12.1 476.23) rotate(-45)"/><rect class="cls-4" x="593.15" y="250.02" width="5.38" height="5.39" transform="translate(-4.18 495.34) rotate(-45)"/><rect class="cls-4" x="620.14" y="250.11" width="5.38" height="5.39" transform="translate(3.67 514.45) rotate(-45)"/><rect class="cls-4" x="647.2" y="250.06" width="5.38" height="5.39" transform="translate(11.63 533.57) rotate(-45)"/><rect class="cls-4" x="674.19" y="250.02" width="5.38" height="5.39" transform="translate(19.56 552.64) rotate(-45)"/><rect class="cls-4" x="564.8" y="69.4" width="138.8" height="127.23"/><circle class="cls-5" cx="764.31" cy="473.64" r="130.12"/><line class="cls-6" x1="885.24" y1="426.85" x2="885.24" y2="145.68"/><circle class="cls-3" cx="703.19" cy="89.29" r="52.97"/><circle class="cls-3" cx="703.36" cy="89.41" r="86.46"/><circle class="cls-3" cx="703.36" cy="89.41" r="20.24"/><polygon class="cls-4" points="830.24 480 945.9 364.34 945.9 480 830.24 480"/><polygon class="cls-4" points="714.58 480 830.24 364.34 830.24 480 714.58 480"/></g></svg>