<svg id="Layer_1" data-name="Layer 1" xmlns="http://www.w3.org/2000/svg" xmlns:xlink="http://www.w3.org/1999/xlink" viewBox="0 0 1000 1000"><defs><style>.cls-1{fill:none;}.cls-2{clip-path:url(#clip-path);}.cls-3{fill:#63c;}.cls-4{fill:#3c9;}</style><clipPath id="clip-path"><rect class="cls-1" width="1000" height="1000"/></clipPath></defs><g class="cls-2"><path class="cls-3" d="M250,700H750A100,100,0,0,1,850,800v200a0,0,0,0,1,0,0H150a0,0,0,0,1,0,0V800A100,100,0,0,1,250,700Z"/><circle class="cls-3" cx="500" cy="425" r="275"/><path class="cls-4" d="M500,241.67A183.63,183.63,0,0,1,683.33,425V1565.52H316.67V425A183.63,183.63,0,0,1,500,241.67M500,150c-151.8.18-274.82,123.2-275,275V1657.18H775V425C774.82,273.2,651.8,150.18,500,150Z"/><path class="cls-3" d="M250,700H416.75a100,100,0,0,1,100,100v200a0,0,0,0,1,0,0H150a0,0,0,0,1,0,0V800A100,100,0,0,1,250,700Z"/></g></svg>