<svg id="Layer_1" data-name="Layer 1" xmlns="http://www.w3.org/2000/svg" xmlns:xlink="http://www.w3.org/1999/xlink" viewBox="0 0 1140 480"><defs><style>.cls-1,.cls-5,.cls-6{fill:none;}.cls-2{clip-path:url(#clip-path);}.cls-3{fill:#3c9;}.cls-4{fill:#63c;}.cls-5{stroke:#3c9;}.cls-5,.cls-6{stroke-miterlimit:10;stroke-width:2px;}.cls-6{stroke:#63c;}</style><clipPath id="clip-path"><rect class="cls-1" x="194.1" width="751.81" height="480"/></clipPath></defs><g class="cls-2"><g class="cls-2"><rect class="cls-3" x="309.76" y="202.41" width="289.16" height="346.99"/></g><g class="cls-2"><rect class="cls-4" x="493.01" y="297.42" width="173.17" height="25.98" transform="translate(-49.73 500.75) rotate(-45)"/><polygon class="cls-4" points="500 390 527.55 380.82 509.18 362.45 500 390"/></g><g class="cls-2"><rect class="cls-4" x="311.06" y="424.46" width="6.36" height="6.36" transform="translate(-210.35 347.45) rotate(-45)"/><rect class="cls-4" x="342.82" y="424.51" width="6.36" height="6.36" transform="translate(-201.08 369.92) rotate(-45)"/><rect class="cls-4" x="374.62" y="424.54" width="6.36" height="6.36" transform="translate(-191.79 392.42) rotate(-45)"/><rect class="cls-4" x="406.42" y="424.54" width="6.36" height="6.36" transform="translate(-182.48 414.91) rotate(-45)"/><rect class="cls-4" x="438.14" y="424.49" width="6.36" height="6.36" transform="translate(-173.15 437.32) rotate(-45)"/><rect class="cls-4" x="311.1" y="448.39" width="6.36" height="6.36" transform="translate(-227.26 354.49) rotate(-45)"/><rect class="cls-4" x="342.86" y="448.44" width="6.36" height="6.36" transform="translate(-217.99 376.96) rotate(-45)"/><rect class="cls-4" x="374.56" y="448.43" width="6.36" height="6.36" transform="translate(-208.7 399.38) rotate(-45)"/><rect class="cls-4" x="406.36" y="448.43" width="6.36" height="6.36" transform="translate(-199.38 421.87) rotate(-45)"/><rect class="cls-4" x="438.14" y="448.38" width="6.36" height="6.36" transform="translate(-190.04 444.32) rotate(-45)"/><rect class="cls-4" x="311.1" y="472.34" width="6.36" height="6.36" transform="translate(-244.19 361.51) rotate(-45)"/><rect class="cls-4" x="342.84" y="472.36" width="6.36" height="6.36" transform="translate(-234.91 383.96) rotate(-45)"/><rect class="cls-4" x="374.61" y="472.35" width="6.36" height="6.36" transform="translate(-225.6 406.42) rotate(-45)"/><rect class="cls-4" x="406.41" y="472.36" width="6.36" height="6.36" transform="translate(-216.29 428.9) rotate(-45)"/><rect class="cls-4" x="438.17" y="472.35" width="6.36" height="6.36" transform="translate(-206.98 451.36) rotate(-45)"/></g><g class="cls-2"><path class="cls-3" d="M697.23,347V480h133A133,133,0,0,0,697.23,347Z"/></g><g class="cls-2"><polygon class="cls-3" points="830.24 57.83 772.41 115.66 714.58 57.83 772.41 0 830.24 57.83"/><polygon class="cls-4" points="714.58 57.83 656.75 115.66 598.92 57.83 656.75 0 714.58 57.83"/><polygon class="cls-4" points="945.9 57.83 888.07 115.66 830.24 57.83 888.07 0 945.9 57.83"/></g><g class="cls-2"><rect class="cls-5" x="830.24" y="0.58" width="115.08" height="115.26"/><rect class="cls-5" x="830.24" y="231.15" width="115.08" height="115.26"/><rect class="cls-5" x="715.16" y="115.84" width="115.08" height="115.26"/></g><path class="cls-4" d="M194.1,153.25A86.75,86.75,0,1,1,107.35,240a86.74,86.74,0,0,1,86.75-86.75m0-20A106.75,106.75,0,1,0,300.84,240,106.87,106.87,0,0,0,194.1,133.25Z"/><path class="cls-4" d="M451.45,2.83l98.37,98.37-98.37,98.38L353.07,101.2,451.45,2.83m0-2.83L350.24,101.2,451.45,202.41,552.65,101.2,451.45,0Z"/><line class="cls-6" x1="451.45" x2="451.45" y2="202.41"/><line class="cls-6" x1="350.24" y1="101.2" x2="552.65" y2="101.2"/></g></svg>