<svg id="Layer_1" data-name="Layer 1" xmlns="http://www.w3.org/2000/svg" viewBox="0 0 960 460"><defs><style>.cls-1,.cls-2,.cls-3{fill:none;opacity:0.2;}.cls-1,.cls-2{stroke:#ff7847;}.cls-1{stroke-miterlimit:10;stroke-width:2px;}.cls-2,.cls-3{stroke-miterlimit:10;stroke-width:2px;}.cls-3{stroke:#3c9;}</style></defs><rect class="cls-1" x="203.44" y="107.3" width="245.5" height="245.49" transform="translate(-67.13 298.03) rotate(-45)"/><line class="cls-2" x1="326.2" y1="56.4" x2="326.2" y2="403.6"/><line class="cls-2" x1="152.6" y1="230" x2="499.7" y2="230"/><path class="cls-2" d="M810,221.9A88.1,88.1,0,1,1,721.9,310h0A88.3,88.3,0,0,1,810,221.9m0-60.9A149,149,0,1,0,959,310,149,149,0,0,0,810,161Z"/><polygon class="cls-3" points="610.7 199.3 610.7 1 412.4 1 610.7 199.3"/><polygon class="cls-3" points="610.7 397.6 610.7 199.3 412.4 199.3 610.7 397.6"/><polygon class="cls-3" points="809 199.3 809 1 610.7 1 809 199.3"/><polygon class="cls-3" points="809 397.6 809 199.3 610.7 199.3 809 397.6"/><rect class="cls-3" x="1" y="1" width="152.5" height="152.67"/><rect class="cls-3" x="1" y="306.3" width="152.5" height="152.67"/><rect class="cls-3" x="153.5" y="153.6" width="152.5" height="152.67"/></svg>