<svg id="Layer_1" data-name="Layer 1" xmlns="http://www.w3.org/2000/svg" xmlns:xlink="http://www.w3.org/1999/xlink" viewBox="0 0 1840 830"><defs><style>.cls-1,.cls-3{fill:none;}.cls-2{clip-path:url(#clip-path);}.cls-3{stroke:#3c9;stroke-miterlimit:10;stroke-width:2px;}.cls-4{fill:#3c9;}.cls-5{fill:#63c;}</style><clipPath id="clip-path"><rect class="cls-1" width="1840" height="830"/></clipPath></defs><g class="cls-2"><polygon class="cls-3" points="890.2 564.9 626 564.9 626 300.7 890.2 564.9"/><polygon class="cls-3" points="1154.3 564.9 890.2 564.9 890.2 300.7 1154.3 564.9"/><polygon class="cls-3" points="890.2 829 626 829 626 564.9 890.2 829"/><polygon class="cls-3" points="1154.3 829 890.2 829 890.2 564.9 1154.3 829"/><rect class="cls-3" x="477" y="1" width="148.99" height="149"/><rect class="cls-3" x="775" y="1" width="148.99" height="149"/><rect class="cls-3" x="626" y="150" width="148.99" height="149"/><circle class="cls-4" cx="1323.9" cy="556.4" r="155.1"/><circle class="cls-4" cx="1323.9" cy="243.9" r="155.1"/><path class="cls-5" d="M1324.1,400c-220.9,0-400-179.1-400-400s179.1-400,400-400Z"/><rect class="cls-4" x="1091.5" y="2.23" width="11" height="10.96" transform="translate(315.85 777.95) rotate(-45)"/><rect class="cls-4" x="1146.42" y="2.2" width="11" height="10.96" transform="translate(331.95 816.78) rotate(-45)"/><rect class="cls-4" x="1201.34" y="2.28" width="11" height="10.96" transform="translate(347.98 855.64) rotate(-45)"/><rect class="cls-4" x="1256.33" y="2.29" width="11" height="10.96" transform="translate(364.08 894.52) rotate(-45)"/><rect class="cls-4" x="1311.15" y="2.27" width="11" height="10.96" transform="translate(380.15 933.28) rotate(-45)"/><rect class="cls-4" x="1091.5" y="43.53" width="11" height="10.96" transform="translate(286.65 790.05) rotate(-45)"/><rect class="cls-4" x="1146.42" y="43.61" width="11" height="10.96" transform="translate(302.68 828.91) rotate(-45)"/><rect class="cls-4" x="1201.34" y="43.69" width="11" height="10.96" transform="translate(318.71 867.77) rotate(-45)"/><rect class="cls-4" x="1256.33" y="43.6" width="11" height="10.96" transform="translate(334.88 906.62) rotate(-45)"/><rect class="cls-4" x="1311.15" y="43.58" width="11" height="10.96" transform="translate(350.95 945.38) rotate(-45)"/><rect class="cls-4" x="1091.48" y="85" width="11" height="10.96" transform="translate(257.32 802.18) rotate(-45)"/><rect class="cls-4" x="1146.4" y="84.98" width="11" height="10.96" transform="translate(273.42 841.01) rotate(-45)"/><rect class="cls-4" x="1201.42" y="85.06" width="11" height="10.96" transform="translate(289.47 879.94) rotate(-45)"/><rect class="cls-4" x="1256.31" y="84.97" width="11" height="10.96" transform="translate(305.62 918.72) rotate(-45)"/><rect class="cls-4" x="1311.23" y="84.95" width="11" height="10.96" transform="translate(321.72 957.55) rotate(-45)"/><path class="cls-5" d="M626,585c134.54.28,243.37,109.57,243.09,244.11S759.52,1072.48,625,1072.2,381.61,962.63,381.89,828.09A243.61,243.61,0,0,1,626,585m0-20c-146.3,0-265,118.6-265,265s118.7,265,265,265S891,976.4,891,830,772.4,565,626,565Z"/></g></svg>