<?xml version="1.0" encoding="UTF-8"?>
<svg width="960px" height="320px" viewBox="0 0 960 320" version="1.1" xmlns="http://www.w3.org/2000/svg" xmlns:xlink="http://www.w3.org/1999/xlink">
    <title>hyp-logo</title>
    <g id="Page-1" stroke="none" stroke-width="1" fill="none" fill-rule="evenodd">
        <g id="hyp-logo" fill="#FFFFFF" fill-rule="nonzero">
            <polygon id="Path" points="660 32.4 915.3 160 660 287.6"></polygon>
            <path d="M680,64.7 L870.6,160 L680,255.3 L680,64.7 M640,0 L640,320 L960,160 L640,0 Z" id="Shape"></path>
            <polygon id="Path" points="352.4 300 607.6 300 480 44.7"></polygon>
            <path d="M575.3,280 L480,89.4 L384.7,280 L575.3,280 Z M640,320 L320,320 L480,0 L640,320 Z" id="Shape"></path>
            <polygon id="Path" points="300 32.4 44.7 160 300 287.6"></polygon>
            <path d="M280,64.7 L89.4,160 L280,255.3 L280,64.7 M320,0 L320,320 L0,160 L320,0 Z" id="Shape"></path>
        </g>
    </g>
</svg>