<?xml version="1.0" encoding="utf-8"?>
<!-- Generator: Adobe Illustrator 25.0.1, SVG Export Plug-In . SVG Version: 6.00 Build 0)  -->
<svg version="1.1" id="Layer_1" xmlns="http://www.w3.org/2000/svg" xmlns:xlink="http://www.w3.org/1999/xlink" x="0px" y="0px"
	 viewBox="0 0 960 320" style="enable-background:new 0 0 960 320;" xml:space="preserve">
<style type="text/css">
	.st0{fill:#6633CC;}
</style>
<polygon class="st0" points="660,32.4 915.3,160 660,287.6 "/>
<path class="st0" d="M680,64.7L870.6,160L680,255.3V64.7 M640,0v320l320-160L640,0z"/>
<polygon class="st0" points="352.4,300 607.6,300 480,44.7 "/>
<path class="st0" d="M575.3,280L480,89.4L384.7,280H575.3z M640,320H320L480,0L640,320z"/>
<polygon class="st0" points="300,32.4 44.7,160 300,287.6 "/>
<path class="st0" d="M280,64.7L89.4,160L280,255.3V64.7 M320,0v320L0,160L320,0z"/>
</svg>
