<svg id="Layer_1" data-name="Layer 1" xmlns="http://www.w3.org/2000/svg" xmlns:xlink="http://www.w3.org/1999/xlink" viewBox="0 0 1000 1000"><defs><style>.cls-1{fill:none;}.cls-2{clip-path:url(#clip-path);}.cls-3{fill:#63c;}.cls-4{fill:#3c9;}</style><clipPath id="clip-path"><rect class="cls-1" width="1000" height="1000"/></clipPath></defs><g class="cls-2"><circle class="cls-3" cx="500" cy="425" r="275"/><path class="cls-4" d="M500,461.67h91.67a91.69,91.69,0,0,1,91.66,91.66H591.67A91.7,91.7,0,0,1,500,461.67Z"/><path class="cls-4" d="M408.33,553.33H316.67a91.69,91.69,0,0,1,91.66-91.66H500A91.7,91.7,0,0,1,408.33,553.33Z"/><path class="cls-4" d="M200,700H800A100,100,0,0,1,900,800v200a0,0,0,0,1,0,0H100a0,0,0,0,1,0,0V800A100,100,0,0,1,200,700Z"/><rect class="cls-3" x="450.5" y="720.5" width="98.99" height="98.99" transform="translate(-398.03 579.08) rotate(-45)"/><polygon class="cls-3" points="577.5 966.58 500 1091.58 422.5 966.58 500 841.58 577.5 966.58"/></g></svg>