<svg id="Layer_1" data-name="Layer 1" xmlns="http://www.w3.org/2000/svg" viewBox="0 0 1000 1000"><defs><style>.cls-1{fill:#3c9;}.cls-2{fill:#63c;}.cls-3{fill:#fff;}</style></defs><path class="cls-1" d="M344,296.75l54.64-32a200.49,200.49,0,0,0-12.28-42l-63.26,2.52,31.33-55.06a201.11,201.11,0,0,0-31.65-30.24L269.16,173.7l-.38-63.34a204.88,204.88,0,0,0-21-6.35,197.13,197.13,0,0,0-21.54-4l-29.5,56.05-32-54.69a201.44,201.44,0,0,0-42,12.33L125.19,177l-55-31.37a202.17,202.17,0,0,0-30.27,31.66l33.79,53.6-63.33.38A203.61,203.61,0,0,0,4,252.2a206.84,206.84,0,0,0-4,21.55l56.07,29.49-54.68,32a201,201,0,0,0,12.31,42L77,374.79l-31.32,55a203,203,0,0,0,31.63,30.28l53.58-33.78.39,63.32a195.61,195.61,0,0,0,21,6.33,197.63,197.63,0,0,0,21.54,4l29.51-56,32,54.68a200.75,200.75,0,0,0,42-12.33l-2.48-63.24,55,31.32a202.25,202.25,0,0,0,30.25-31.62l-33.8-53.61,63.35-.38a219,219,0,0,0,6.39-21c1.71-7.17,3-14.39,4-21.54Zm-43.32,31.63A108.21,108.21,0,1,1,221.15,197.6,108.27,108.27,0,0,1,300.63,328.38Z"/><rect class="cls-2" x="200" y="300" width="800" height="600"/><circle class="cls-1" cx="275" cy="375" r="25"/><circle class="cls-3" cx="335" cy="375" r="25"/><path class="cls-1" d="M395,355a20,20,0,1,1-20,20,20,20,0,0,1,20-20m0-5a25,25,0,1,0,25,25,25,25,0,0,0-25-25Z"/><polygon class="cls-1" points="481.6 700 395 850 568.21 850 481.6 700"/><path class="cls-1" d="M783.5,515,965.36,830H601.64L783.5,515m0-40L567,850h433L783.5,475Z"/></svg>