<svg id="Layer_1" data-name="Layer 1" xmlns="http://www.w3.org/2000/svg" xmlns:xlink="http://www.w3.org/1999/xlink" viewBox="0 0 1000 1000"><defs><style>.cls-1{fill:none;}.cls-2{clip-path:url(#clip-path);}.cls-3{fill:#3c9;}.cls-4{fill:#63c;}</style><clipPath id="clip-path"><rect class="cls-1" width="1000" height="1000"/></clipPath></defs><g class="cls-2"><circle class="cls-3" cx="500" cy="450" r="250"/><path class="cls-4" d="M400,200h0c0,110.4-89.6,200-200,200h0C200,289.6,289.6,200,400,200Z"/><path class="cls-4" d="M400,200H600c110.4,0,200,89.6,200,200H600C489.6,400,400,310.4,400,200Z"/><path class="cls-4" d="M200,700H800A100,100,0,0,1,900,800v200a0,0,0,0,1,0,0H100a0,0,0,0,1,0,0V800A100,100,0,0,1,200,700Z"/><rect class="cls-3" x="300" y="770" width="400" height="50"/><rect class="cls-3" x="340.9" y="918.72" width="400" height="50" transform="translate(-508.88 658.88) rotate(-45)"/></g></svg>