<svg id="Layer_1" data-name="Layer 1" xmlns="http://www.w3.org/2000/svg" xmlns:xlink="http://www.w3.org/1999/xlink" viewBox="0 0 1140 480"><defs><style>.cls-1,.cls-4,.cls-5{fill:none;}.cls-2{clip-path:url(#clip-path);}.cls-3,.cls-7{fill:#3c9;}.cls-4,.cls-5{stroke:#63c;}.cls-4{stroke-miterlimit:10;stroke-width:2px;}.cls-5{stroke-miterlimit:10;stroke-width:2px;}.cls-6{fill:#63c;}.cls-7{isolation:isolate;font-size:1.73px;font-family:ArialMT, Arial;}</style><clipPath id="clip-path"><rect class="cls-1" x="194.1" width="751.81" height="480"/></clipPath></defs><g class="cls-2"><rect class="cls-3" x="483.25" y="190.84" width="404.82" height="289.16"/><circle class="cls-4" cx="523.75" cy="190.85" r="17.71"/><circle class="cls-5" cx="523.73" cy="190.84" r="28.92"/><circle class="cls-5" cx="523.73" cy="190.84" r="6.77"/><circle class="cls-6" cx="593.13" cy="190.84" r="28.92"/><circle class="cls-6" cx="662.53" cy="190.84" r="28.92"/><rect class="cls-5" x="512.17" y="231.33" width="404.82" height="289.16" rx="5.78"/><rect class="cls-6" x="240.36" width="185.06" height="277.59"/><rect class="cls-5" x="526.63" y="245.78" width="375.9" height="289.16" rx="5.78"/><text class="cls-7" transform="translate(353.13 36.72)">#ADFFD6</text><rect class="cls-3" x="353.25" y="32.53" width="57.71" height="7.23"/><rect class="cls-3" x="353.25" y="14.46" width="28.85" height="7.23"/><rect class="cls-3" x="382.11" y="50.6" width="28.85" height="7.23"/><rect class="cls-3" x="240.36" y="28.92" width="92.53" height="289.16"/><path class="cls-3" d="M945.9-115.66a115,115,0,0,1,45,9.08,115.42,115.42,0,0,1,36.77,24.79A115.2,115.2,0,0,1,1052.48-45a114.94,114.94,0,0,1,9.09,45,114.94,114.94,0,0,1-9.09,45,115.2,115.2,0,0,1-24.79,36.77,115.42,115.42,0,0,1-36.77,24.79,116.09,116.09,0,0,1-90,0,115.31,115.31,0,0,1-36.77-24.79A115.2,115.2,0,0,1,839.33,45a114.94,114.94,0,0,1-9.09-45,114.94,114.94,0,0,1,9.09-45,115.2,115.2,0,0,1,24.79-36.77,115.31,115.31,0,0,1,36.77-24.79,115,115,0,0,1,45-9.08m0-11.57A127.23,127.23,0,0,0,818.67,0,127.23,127.23,0,0,0,945.9,127.23,127.23,127.23,0,0,0,1073.13,0,127.23,127.23,0,0,0,945.9-127.23Z"/><polygon class="cls-6" points="258.93 329.64 254.36 334.21 258.93 338.79 263.49 334.21 258.93 329.64"/><polygon class="cls-6" points="258.93 362.05 254.36 366.62 258.93 371.2 263.49 366.62 258.93 362.05"/><polygon class="cls-6" points="258.93 394.46 254.36 399.04 258.93 403.61 263.49 399.04 258.93 394.46"/><polygon class="cls-6" points="258.93 426.88 254.36 431.45 258.93 436.02 263.49 431.45 258.93 426.88"/><polygon class="cls-6" points="263.49 463.86 258.93 459.29 254.36 463.86 258.93 468.43 263.49 463.86"/><polygon class="cls-6" points="234.58 329.64 230.01 334.21 234.58 338.79 239.14 334.21 234.58 329.64"/><polygon class="cls-6" points="234.58 362.05 230.01 366.62 234.58 371.2 239.14 366.62 234.58 362.05"/><polygon class="cls-6" points="234.58 394.46 230.01 399.04 234.58 403.61 239.14 399.04 234.58 394.46"/><polygon class="cls-6" points="234.58 426.88 230.01 431.45 234.58 436.02 239.14 431.45 234.58 426.88"/><polygon class="cls-6" points="239.14 463.86 234.58 459.29 230.01 463.86 234.58 468.43 239.14 463.86"/><polygon class="cls-6" points="210.23 329.64 205.66 334.21 210.23 338.79 214.79 334.21 210.23 329.64"/><polygon class="cls-6" points="210.23 362.05 205.66 366.62 210.23 371.2 214.79 366.62 210.23 362.05"/><polygon class="cls-6" points="210.23 394.46 205.66 399.04 210.23 403.61 214.79 399.04 210.23 394.46"/><polygon class="cls-6" points="210.23 426.88 205.66 431.45 210.23 436.02 214.79 431.45 210.23 426.88"/><polygon class="cls-6" points="214.79 463.86 210.23 459.29 205.66 463.86 210.23 468.43 214.79 463.86"/><path class="cls-6" d="M295.81,140A67.38,67.38,0,0,1,275.64,187a69,69,0,0,1-48.85,20H124.65a67.37,67.37,0,0,1,20.2-47.1,69,69,0,0,1,48.81-20H295.81M297,138.8H193.66c-38.75,0-70.18,31.07-70.18,69.39H226.79c38.75,0,70.18-31.07,70.18-69.39Z"/></g></svg>