<svg id="Layer_1" data-name="Layer 1" xmlns="http://www.w3.org/2000/svg" xmlns:xlink="http://www.w3.org/1999/xlink" viewBox="0 0 1300 830"><defs><style>.cls-1,.cls-4{fill:none;}.cls-2{clip-path:url(#clip-path);}.cls-3,.cls-6{fill:#3c9;}.cls-4{stroke:#63c;stroke-miterlimit:10;stroke-width:2px;}.cls-5{fill:#63c;}.cls-6{isolation:isolate;font-size:3px;font-family:ArialMT, Arial;}</style><clipPath id="clip-path"><rect class="cls-1" width="1300" height="830"/></clipPath></defs><g class="cls-2"><rect class="cls-3" x="500" y="330" width="700" height="500"/><circle class="cls-4" cx="570" cy="330" r="30.63" transform="translate(152.96 839.78) rotate(-80.78)"/><circle class="cls-4" cx="570" cy="330" r="50"/><circle class="cls-4" cx="570" cy="330" r="11.7"/><circle class="cls-5" cx="690" cy="330" r="50"/><circle class="cls-5" cx="810" cy="330" r="50"/><rect class="cls-4" x="550" y="400" width="700" height="500" rx="10"/><rect class="cls-5" x="80" width="320" height="480"/><rect class="cls-4" x="575" y="425" width="650" height="500" rx="10"/><text class="cls-6" transform="translate(275 63.49)">#ADFFD6</text><rect class="cls-3" x="275.21" y="56.25" width="99.79" height="12.5"/><rect class="cls-3" x="275.21" y="25" width="49.89" height="12.5"/><rect class="cls-3" x="325.11" y="87.5" width="49.89" height="12.5"/><rect class="cls-3" x="80" y="50" width="160" height="500"/><path class="cls-3" d="M1300-200a198.76,198.76,0,0,1,77.84,15.71,199.12,199.12,0,0,1,63.58,42.87,199.12,199.12,0,0,1,42.87,63.58A198.76,198.76,0,0,1,1500,0a198.76,198.76,0,0,1-15.71,77.84,199.12,199.12,0,0,1-42.87,63.58,199.12,199.12,0,0,1-63.58,42.87,200.7,200.7,0,0,1-155.68,0,199.12,199.12,0,0,1-63.58-42.87,199.12,199.12,0,0,1-42.87-63.58A198.76,198.76,0,0,1,1100,0a198.76,198.76,0,0,1,15.71-77.84,199.12,199.12,0,0,1,42.87-63.58,199.12,199.12,0,0,1,63.58-42.87A198.76,198.76,0,0,1,1300-200m0-20c-121.5,0-220,98.5-220,220s98.5,220,220,220,220-98.5,220-220-98.5-220-220-220Z"/><polygon class="cls-5" points="112.11 570 104.21 577.91 112.11 585.82 120 577.91 112.11 570"/><polygon class="cls-5" points="112.11 626.05 104.21 633.95 112.11 641.86 120 633.95 112.11 626.05"/><polygon class="cls-5" points="112.11 682.09 104.21 690 112.11 697.91 120 690 112.11 682.09"/><polygon class="cls-5" points="112.11 738.14 104.21 746.05 112.11 753.95 120 746.05 112.11 738.14"/><polygon class="cls-5" points="120 802.09 112.11 794.18 104.21 802.09 112.11 810 120 802.09"/><polygon class="cls-5" points="70 570 62.11 577.91 70 585.82 77.89 577.91 70 570"/><polygon class="cls-5" points="70 626.05 62.11 633.95 70 641.86 77.89 633.95 70 626.05"/><polygon class="cls-5" points="70 682.09 62.11 690 70 697.91 77.89 690 70 682.09"/><polygon class="cls-5" points="70 738.14 62.11 746.05 70 753.95 77.89 746.05 70 738.14"/><polygon class="cls-5" points="77.89 802.09 70 794.18 62.11 802.09 70 810 77.89 802.09"/><polygon class="cls-5" points="27.89 570 20 577.91 27.89 585.82 35.79 577.91 27.89 570"/><polygon class="cls-5" points="27.89 626.05 20 633.95 27.89 641.86 35.79 633.95 27.89 626.05"/><polygon class="cls-5" points="27.89 682.09 20 690 27.89 697.91 35.79 690 27.89 682.09"/><polygon class="cls-5" points="27.89 738.14 20 746.05 27.89 753.95 35.79 746.05 27.89 738.14"/><polygon class="cls-5" points="35.79 802.09 27.89 794.18 20 802.09 27.89 810 35.79 802.09"/><path class="cls-5" d="M175.88,242A116.56,116.56,0,0,1,141,323.43,119.29,119.29,0,0,1,56.54,358H-120.09a116.51,116.51,0,0,1,34.93-81.43A119.28,119.28,0,0,1-.76,242H175.88m2-2H-.76c-67,0-121.35,53.73-121.35,120H56.54c67,0,121.35-53.73,121.35-120Z"/></g></svg>