<?xml version="1.0" encoding="utf-8"?>
<!-- Generator: Adobe Illustrator 25.0.1, SVG Export Plug-In . SVG Version: 6.00 Build 0)  -->
<svg version="1.1" id="Layer_1" xmlns="http://www.w3.org/2000/svg" xmlns:xlink="http://www.w3.org/1999/xlink" x="0px" y="0px"
	 viewBox="0 0 1300 830" style="enable-background:new 0 0 1300 830;" xml:space="preserve">
<style type="text/css">
	.st0{clip-path:url(#SVGID_2_);}
	.st1{fill:#6633CC;}
	.st2{fill:#33CC99;}
	.st3{fill:none;stroke:#33CC99;stroke-width:2;stroke-miterlimit:10;}
	.st4{fill:none;stroke:#6633CC;stroke-width:2;stroke-miterlimit:10;}
</style>
<g>
	<defs>
		<rect id="SVGID_1_" width="1300" height="830"/>
	</defs>
	<clipPath id="SVGID_2_">
		<use xlink:href="#SVGID_1_"  style="overflow:visible;"/>
	</clipPath>
	<g class="st0">
		<circle class="st1" cx="375" cy="430" r="150"/>
		<path class="st2" d="M375,450h50c27.6,0,50,22.4,50,50h-50C397.4,500,375,477.6,375,450z"/>
		<path class="st2" d="M325,500h-50c0-27.6,22.4-50,50-50h50C375,477.6,352.6,500,325,500z"/>
		<path class="st3" d="M196,581h358c11,0.1,19.9,9,20,20v358c-0.1,11-9,19.9-20,20H196c-11-0.1-19.9-9-20-20V601
			C176.1,590,185,581.1,196,581z"/>
		<circle class="st2" cx="675" cy="475" r="125"/>
		<path class="st1" d="M625,350L625,350c0,55.2-44.8,100-100,100l0,0C525,394.8,569.8,350,625,350z"/>
		<path class="st1" d="M625,350h100c55.2,0,100,44.8,100,100H725C669.8,450,625,405.2,625,350z"/>
		<path class="st4" d="M546,601h258c11,0.1,19.9,9,20,20v358c-0.1,11-9,19.9-20,20H546c-11-0.1-19.9-9-20-20V621
			C526.1,610,535,601.1,546,601z"/>
		<circle class="st1" cx="975" cy="400" r="150"/>
		<path class="st2" d="M975,300c55.2,0.1,99.9,44.8,100,100v622.1H875V400C875.1,344.8,919.8,300.1,975,300 M975,250
			c-82.8,0.1-149.9,67.2-150,150v672.1h300V400C1124.9,317.2,1057.8,250.1,975,250z"/>
		<path class="st4" d="M871,550h208c11,0.1,19.9,9,20,20v358c-0.1,11-9,19.9-20,20H871c-11-0.1-19.9-9-20-20V570
			C851.1,559,860,550.1,871,550z"/>
		
			<rect x="45.1" y="95.2" transform="matrix(0.7071 -0.7071 0.7071 0.7071 -97.8036 165.3426)" class="st4" width="211.1" height="211.1"/>
		<line class="st4" x1="150.7" y1="51.4" x2="150.7" y2="350"/>
		<line class="st4" x1="1.4" y1="200.7" x2="300" y2="200.7"/>
		<rect x="500" y="200" class="st2" width="100" height="100"/>
		<rect x="600" y="100" class="st1" width="100" height="100"/>
		<rect x="700" class="st2" width="100" height="100"/>
		<path class="st4" d="M1198.7,200H1051c0-67.9,44.9-123,100.3-123H1299C1299,144.9,1254.1,200,1198.7,200z"/>
	</g>
</g>
</svg>
